<svg xmlns="http://www.w3.org/2000/svg" viewBox="0 0 425.67 72.29"><defs><style>.cls-1{opacity:0.8;}</style></defs><title>Asset 1</title><g id="Layer_2" data-name="Layer 2"><g id="Layer_1-2" data-name="Layer 1"><g class="cls-1"><path d="M56.14,49.32V67a1.62,1.62,0,0,1-1.62,1.61H49.09A1.61,1.61,0,0,1,47.48,67V58.22a1.63,1.63,0,0,0-1.62-1.62H10.34a1.62,1.62,0,0,0-1.61,1.62V67a1.62,1.62,0,0,1-1.62,1.61H1.62A1.61,1.61,0,0,1,0,67L.06,49.32a1.62,1.62,0,0,1,1.62-1.61h.55Q7,47.47,8.91,39.83T11.25,18l.53-16.39A1.61,1.61,0,0,1,13.39,0H47.23a1.62,1.62,0,0,1,1.62,1.62V46.09a1.61,1.61,0,0,0,1.61,1.62h4.06A1.62,1.62,0,0,1,56.14,49.32ZM17.89,37.24a29.22,29.22,0,0,1-2.38,8.12,1.61,1.61,0,0,0,1.43,2.35H38a1.61,1.61,0,0,0,1.61-1.62V10.51A1.62,1.62,0,0,0,38,8.89H21.4a1.62,1.62,0,0,0-1.62,1.56l-.3,8.47A141.53,141.53,0,0,1,17.89,37.24Z"/><path d="M63.06,55.27a6.89,6.89,0,0,1-1.73-4.81A6.93,6.93,0,0,1,63,45.61a5.86,5.86,0,0,1,4.91-1.83,5.43,5.43,0,0,1,3.53,1.83,6.91,6.91,0,0,1,1.7,4.85,6.85,6.85,0,0,1-1.74,4.81,5.56,5.56,0,0,1-8.37,0Z"/><path d="M134.79,49.32V67a1.61,1.61,0,0,1-1.62,1.61h-5.42A1.61,1.61,0,0,1,126.13,67V58.22a1.62,1.62,0,0,0-1.62-1.62H89a1.62,1.62,0,0,0-1.62,1.62V67a1.61,1.61,0,0,1-1.62,1.61H80.27A1.62,1.62,0,0,1,78.65,67l.06-17.71a1.62,1.62,0,0,1,1.62-1.61h.56q4.76-.24,6.67-7.88T89.91,18l.52-16.39A1.62,1.62,0,0,1,92.05,0h33.84a1.61,1.61,0,0,1,1.61,1.62V46.09a1.62,1.62,0,0,0,1.62,1.62h4A1.61,1.61,0,0,1,134.79,49.32ZM96.54,37.24a29.22,29.22,0,0,1-2.38,8.12,1.62,1.62,0,0,0,1.44,2.35h21.05a1.61,1.61,0,0,0,1.61-1.62V10.51a1.62,1.62,0,0,0-1.61-1.62h-16.6a1.61,1.61,0,0,0-1.61,1.56l-.31,8.47A141.53,141.53,0,0,1,96.54,37.24Z"/><path d="M174,15.69a18.83,18.83,0,0,1,7,7.76A25.29,25.29,0,0,1,183.5,35,25.56,25.56,0,0,1,181,46.62a18.4,18.4,0,0,1-17,10.55,15.13,15.13,0,0,1-9.7-3.15,1.62,1.62,0,0,0-2.64,1.25V70.68A1.61,1.61,0,0,1,150,72.29H144.2a1.62,1.62,0,0,1-1.62-1.61V15a1.63,1.63,0,0,1,1.62-1.62h5.35A1.62,1.62,0,0,1,151.17,15h0a1.61,1.61,0,0,0,2.65,1.23,14.15,14.15,0,0,1,2.87-1.8,17,17,0,0,1,7.25-1.53A18.74,18.74,0,0,1,174,15.69ZM171.12,44.8q3.21-3.72,3.21-9.79a14.44,14.44,0,0,0-3.21-9.78,10.34,10.34,0,0,0-8.19-3.72,10.59,10.59,0,0,0-5.84,1.66A11.52,11.52,0,0,0,153,27.9,15.89,15.89,0,0,0,151.46,35,15.91,15.91,0,0,0,153,42.13a11.52,11.52,0,0,0,4.12,4.73,10.59,10.59,0,0,0,5.84,1.66A10.34,10.34,0,0,0,171.12,44.8Z"/><path d="M194.06,13.42h5.79A1.63,1.63,0,0,1,201.47,15V37a1.62,1.62,0,0,0,2.91,1l17.89-23.93a1.61,1.61,0,0,1,1.29-.65h5.81A1.62,1.62,0,0,1,231,15V55a1.61,1.61,0,0,1-1.61,1.61h-5.79A1.62,1.62,0,0,1,222,55V33a1.61,1.61,0,0,0-2.91-1L201.23,56a1.6,1.6,0,0,1-1.3.65h-5.87A1.61,1.61,0,0,1,192.45,55V15A1.62,1.62,0,0,1,194.06,13.42Z"/><path d="M281,55V34.38a1.62,1.62,0,0,0-3-.76l-9.49,17.61a1.62,1.62,0,0,1-1.42.85h-2a1.63,1.63,0,0,1-1.43-.86l-9.27-17.56a1.62,1.62,0,0,0-3,.76V55a1.61,1.61,0,0,1-1.62,1.61h-5A1.62,1.62,0,0,1,243.1,55V15a1.63,1.63,0,0,1,1.62-1.62h6.85a1.62,1.62,0,0,1,1.44.89l11.85,23.35a1.62,1.62,0,0,0,2.87,0l12.44-23.41a1.62,1.62,0,0,1,1.43-.86h5.86A1.61,1.61,0,0,1,289.07,15l.07,40a1.61,1.61,0,0,1-1.62,1.61H282.6A1.61,1.61,0,0,1,281,55Z"/><path d="M316.43,39.3H311.9a1.61,1.61,0,0,0-1.61,1.62V55a1.62,1.62,0,0,1-1.62,1.61h-5.79A1.61,1.61,0,0,1,301.27,55V15a1.62,1.62,0,0,1,1.61-1.62h5.79A1.63,1.63,0,0,1,310.29,15V29.27a1.61,1.61,0,0,0,1.61,1.62h4.73a1.64,1.64,0,0,0,1.35-.73l10.45-16a1.59,1.59,0,0,1,1.35-.74h5.76a1.62,1.62,0,0,1,1.34,2.52l-11.7,17.37a1.6,1.6,0,0,0,0,1.8l12.66,19a1.62,1.62,0,0,1-1.35,2.51h-6.72a1.62,1.62,0,0,1-1.35-.71L317.77,40A1.62,1.62,0,0,0,316.43,39.3Z"/><path d="M351.2,54.34a19.48,19.48,0,0,1-7.32-7.88A24.37,24.37,0,0,1,341.24,35a24.14,24.14,0,0,1,2.64-11.4,19.56,19.56,0,0,1,7.32-7.84,21.17,21.17,0,0,1,21.15,0,19.7,19.7,0,0,1,7.32,7.84A24.14,24.14,0,0,1,382.31,35a24.37,24.37,0,0,1-2.64,11.45,19.62,19.62,0,0,1-7.32,7.88,21.17,21.17,0,0,1-21.15,0ZM370,44.8q3.24-3.72,3.24-9.79A14.36,14.36,0,0,0,370,25.23a10.46,10.46,0,0,0-8.23-3.72,10.34,10.34,0,0,0-8.19,3.72A14.44,14.44,0,0,0,350.34,35q0,6.08,3.21,9.79a10.34,10.34,0,0,0,8.19,3.72A10.46,10.46,0,0,0,370,44.8Z"/><path d="M425.67,15V55a1.61,1.61,0,0,1-1.61,1.61h-5.79A1.62,1.62,0,0,1,416.65,55V23.61A1.62,1.62,0,0,0,415,22H403.77a1.61,1.61,0,0,0-1.61,1.55l-.3,7a107.51,107.51,0,0,1-1.41,14.35,21.67,21.67,0,0,1-3.53,9.14,8,8,0,0,1-6.82,3.35,15.13,15.13,0,0,1-3.68-.53,1.62,1.62,0,0,1-1.23-1.65l.27-5.43a1.64,1.64,0,0,1,1.68-1.53h.14a4.45,4.45,0,0,0,4.12-2.47,15.92,15.92,0,0,0,1.77-5.9q.39-3.44.68-9.83l.59-15.1a1.62,1.62,0,0,1,1.61-1.56h28A1.62,1.62,0,0,1,425.67,15Z"/></g></g></g></svg>