<svg xmlns="http://www.w3.org/2000/svg" viewBox="0 0 432.75 62.96"><defs><style>.cls-1{opacity:0.8;}</style></defs><title>Asset 2</title><g id="Layer_2" data-name="Layer 2"><g id="Layer_1-2" data-name="Layer 1"><g class="cls-1"><path d="M0,5A1.48,1.48,0,0,1,1.48,3.53H23.23a30.6,30.6,0,0,1,15.1,3.66A25.51,25.51,0,0,1,48.58,17.53,31.69,31.69,0,0,1,52.23,33a31.73,31.73,0,0,1-3.65,15.43A25.57,25.57,0,0,1,38.33,58.72a30.6,30.6,0,0,1-15.1,3.66H1.48A1.48,1.48,0,0,1,0,60.9ZM22.77,53.13a20.79,20.79,0,0,0,10.29-2.48,16.79,16.79,0,0,0,6.83-7.06A22.74,22.74,0,0,0,42.28,33a22.7,22.7,0,0,0-2.39-10.63,16.74,16.74,0,0,0-6.83-7.06,20.79,20.79,0,0,0-10.29-2.48H11.34a1.47,1.47,0,0,0-1.47,1.47v37.4a1.47,1.47,0,0,0,1.47,1.48Z"/><path d="M62.7,5a1.48,1.48,0,0,1,1.48-1.48H85.93A30.63,30.63,0,0,1,101,7.19a25.51,25.51,0,0,1,10.25,10.34A31.69,31.69,0,0,1,114.92,33a31.73,31.73,0,0,1-3.64,15.43A25.57,25.57,0,0,1,101,58.72a30.63,30.63,0,0,1-15.1,3.66H64.18A1.48,1.48,0,0,1,62.7,60.9ZM85.47,53.13a20.79,20.79,0,0,0,10.29-2.48,16.79,16.79,0,0,0,6.83-7.06A22.74,22.74,0,0,0,105,33a22.7,22.7,0,0,0-2.39-10.63,16.74,16.74,0,0,0-6.83-7.06,20.79,20.79,0,0,0-10.29-2.48H74a1.47,1.47,0,0,0-1.47,1.47v37.4A1.47,1.47,0,0,0,74,53.13Z"/><path d="M147.94,18.5v6.78a1.46,1.46,0,0,1-1.53,1.48l-.67,0a10.87,10.87,0,0,0-8.65,3.57Q134,33.89,134,40.6V60.9a1.48,1.48,0,0,1-1.48,1.48H126a1.48,1.48,0,0,1-1.48-1.48V19A1.47,1.47,0,0,1,126,17.49h6.08A1.47,1.47,0,0,1,133.52,19v.87A1.48,1.48,0,0,0,136,21q3.79-3.56,10.39-3.93A1.49,1.49,0,0,1,147.94,18.5Z"/><path d="M192.18,43.29H163.62a1.47,1.47,0,0,0-1.43,1.86,12,12,0,0,0,3.93,6,13.34,13.34,0,0,0,8.77,2.9,14.05,14.05,0,0,0,9.88-3.72,1.47,1.47,0,0,1,2.16.16l3.32,4.23a1.49,1.49,0,0,1-.06,1.91,17.24,17.24,0,0,1-6.11,4.48A25,25,0,0,1,162.9,60,20.13,20.13,0,0,1,155,51.83a25.11,25.11,0,0,1-2.77-11.9A25.45,25.45,0,0,1,155,28.12,19.95,19.95,0,0,1,173.22,17,19.35,19.35,0,0,1,191.1,28a26.94,26.94,0,0,1,2.62,12.14c0,.46,0,1-.06,1.72A1.49,1.49,0,0,1,192.18,43.29ZM165.52,28.37A12.45,12.45,0,0,0,162,34.49a1.49,1.49,0,0,0,1.45,1.83h19.43a1.48,1.48,0,0,0,1.45-1.81,12.37,12.37,0,0,0-3.4-6.1,11.43,11.43,0,0,0-15.44,0Z"/><path d="M230.87,21.73q4.75,4.75,4.75,14.33V60.9a1.48,1.48,0,0,1-1.48,1.48h-6a1.48,1.48,0,0,1-1.48-1.48h0a1.47,1.47,0,0,0-2.42-1.13,11.85,11.85,0,0,1-2.55,1.64A17.73,17.73,0,0,1,213.91,63a17.46,17.46,0,0,1-8-1.72,12.66,12.66,0,0,1-5.28-4.79,13.14,13.14,0,0,1-1.86-6.94,12.47,12.47,0,0,1,4.06-9.71q4.06-3.64,12.79-3.65h10.48v-.68q0-4.69-2.54-7.22T216,25.72a20,20,0,0,0-6.71,1.18,17,17,0,0,0-4.19,2.15,1.47,1.47,0,0,1-2.2-.54l-2.39-4.91a1.45,1.45,0,0,1,.41-1.81,23,23,0,0,1,6.73-3.38A31.14,31.14,0,0,1,217.17,17Q226.13,17,230.87,21.73Zm-8.65,31.78A9.6,9.6,0,0,0,226,48.6a1.6,1.6,0,0,0,.09-.53V44.6a1.47,1.47,0,0,0-1.48-1.47h-8.31q-8.21,0-8.2,6a5.55,5.55,0,0,0,2.05,4.54,8.73,8.73,0,0,0,5.69,1.68A11.38,11.38,0,0,0,222.22,53.51Z"/><path d="M311.07,21.9q4.49,4.92,4.48,14.75V60.9a1.48,1.48,0,0,1-1.48,1.48h-6.53a1.48,1.48,0,0,1-1.48-1.48V38c0-3.93-.78-6.88-2.35-8.87a8.1,8.1,0,0,0-6.76-3,9.48,9.48,0,0,0-7.67,3.49q-2.88,3.5-2.88,10V60.9a1.48,1.48,0,0,1-1.48,1.48h-6.53a1.48,1.48,0,0,1-1.48-1.48V38c0-3.93-.78-6.88-2.35-8.87a8.1,8.1,0,0,0-6.76-3,9.46,9.46,0,0,0-7.7,3.45q-2.85,3.45-2.85,10V60.9a1.48,1.48,0,0,1-1.48,1.48h-6.53a1.48,1.48,0,0,1-1.48-1.48V19a1.47,1.47,0,0,1,1.48-1.47h6.08A1.47,1.47,0,0,1,256.8,19v.56a1.46,1.46,0,0,0,2.4,1.14,15.27,15.27,0,0,1,3.29-2.08,17.64,17.64,0,0,1,7.59-1.6,16.82,16.82,0,0,1,8.08,1.89,13.31,13.31,0,0,1,4.5,3.91,1.51,1.51,0,0,0,2.34.12A17.24,17.24,0,0,1,290.2,19a19.18,19.18,0,0,1,8.73-2Q306.6,17,311.07,21.9Z"/><path d="M343,44.4l-5.43,5.69a1.5,1.5,0,0,0-.41,1V60.9a1.48,1.48,0,0,1-1.47,1.48h-6.54a1.49,1.49,0,0,1-1.48-1.48V1.48A1.48,1.48,0,0,1,329.17,0h6.54a1.47,1.47,0,0,1,1.47,1.48V34a1.48,1.48,0,0,0,2.54,1l16.69-17.13a1.5,1.5,0,0,1,1.06-.44h7.45A1.48,1.48,0,0,1,366,20L352.09,35.44a1.48,1.48,0,0,0-.1,1.84L368.17,60A1.49,1.49,0,0,1,367,62.38H359a1.49,1.49,0,0,1-1.2-.61L345.28,44.55A1.48,1.48,0,0,0,343,44.4Z"/><path d="M381.44,60a20.44,20.44,0,0,1-7.71-8.19A25.23,25.23,0,0,1,371,39.93a24.91,24.91,0,0,1,2.77-11.85,20.55,20.55,0,0,1,7.71-8.16,22.5,22.5,0,0,1,22.24,0,20.46,20.46,0,0,1,7.7,8.16,24.79,24.79,0,0,1,2.77,11.85,25.11,25.11,0,0,1-2.77,11.9,20.35,20.35,0,0,1-7.7,8.19,22.5,22.5,0,0,1-22.24,0Zm19.73-9.92q3.42-3.87,3.42-10.17t-3.42-10.17a11.57,11.57,0,0,0-17.27,0q-3.37,3.87-3.37,10.17T383.9,50.1a11.57,11.57,0,0,0,17.27,0Z"/><path d="M424.74,0h6.53a1.48,1.48,0,0,1,1.48,1.48V60.9a1.48,1.48,0,0,1-1.48,1.48h-6.53a1.48,1.48,0,0,1-1.48-1.48V1.48A1.48,1.48,0,0,1,424.74,0Z"/></g></g></g></svg>