<svg xmlns="http://www.w3.org/2000/svg" height="200" width="400"><path d="M0 199.97733333h399.79065667V.000005H0z" fill="#fff"/><path d="M179.9039955-.000395v79.947998H0v39.97866567h179.9039955v80.05066466h39.98266567v-80.05066466h179.9039955V79.947603h-179.9039955V-.000395z" fill="#cf142b"/><path d="M233.21999417-.000395v64.73333172L362.65999093-.000395zM233.21999417 199.9772h129.43999676L233.21999417 135.2438683zM37.13159907 199.9772H166.5702625V135.2438683zM37.13159907-.000395L166.5702625 64.73293672V-.000395zM.0012 66.65720333h96.11466426L.0012 18.59053787zM303.6743924 66.65720333H399.79039V18.59053787zM303.6743924 133.31960167l96.1159976 48.0679988v-48.0679988zM0 133.31960167v48.0679988l96.1159976-48.0679988z" fill="#00247d"/><path d="M377.58479056-.000395L244.53412722 66.65693667h22.20399944L399.99945666-.000395zM155.25719612 133.31720167h-22.20533278L-.00013333 199.9732h22.20533277l133.26133-66.65599833zM0-.000395v11.17999972l111.0226639 55.52933195h22.20533277zM266.49119334 133.29080167L399.71919 200.00013333l.00133333-11.17999972-111.0226639-55.52933194z" fill="#cf142b"/></svg>