<svg xmlns="http://www.w3.org/2000/svg" viewBox="0 0 139 102"><defs><style>.cls-1{fill:none;stroke:#f2f2f2;stroke-miterlimit:10;stroke-width:5px;}.cls-2{fill:#f2f2f2;}</style></defs><title>Asset 7</title><g id="Layer_2" data-name="Layer 2"><g id="Layer_6" data-name="Layer 6"><path class="cls-1" d="M123.41,2.5H15.59A13.09,13.09,0,0,0,2.5,15.59V86.41A13.09,13.09,0,0,0,15.59,99.5H123.41A13.09,13.09,0,0,0,136.5,86.41V15.59A13.09,13.09,0,0,0,123.41,2.5Zm-.34,90H15.93A6.43,6.43,0,0,1,9.5,86.07v-12L35.38,60.38l23.1,11.06,49.65-48.38L129.5,56.6V86.07A6.43,6.43,0,0,1,123.07,92.5Z"/><path class="cls-2" d="M129.5,56.6V86.07a6.43,6.43,0,0,1-6.43,6.43H15.93A6.43,6.43,0,0,1,9.5,86.07v-12L35.38,60.38l23.1,11.06,49.65-48.38Z"/><path class="cls-1" d="M129.5,56.6V86.07a6.43,6.43,0,0,1-6.43,6.43H15.93A6.43,6.43,0,0,1,9.5,86.07v-12L35.38,60.38l23.1,11.06,49.65-48.38Z"/><circle class="cls-2" cx="47" cy="35" r="11.5"/><circle class="cls-1" cx="47" cy="35" r="11.5"/></g></g></svg>