<svg xmlns="http://www.w3.org/2000/svg" height="200" width="400"><defs><clipPath id="a"><path d="M0 150h300V0H0z"/></clipPath></defs><path d="M0 200h399.99999V.000005H0z" fill="#d20000"/><path d="M339.9995915-.000395L200.00092833 96.42760259 59.9995985-.000395H-.0004l199.999995 99.9999975L399.99959-.000395zm-159.999996 0l20.00133283 85.71466452L219.9995945-.000395zm19.9999995 99.9999975L399.99959 119.999602V79.999603zM-.0004 119.999602l199.999995-19.9999995L-.0004 199.9996h59.9999985l140.00132983-96.42799759L339.9995915 199.9996H399.99959L199.999595 99.9996025-.0004 79.999603zM179.9995955 199.9996h39.999999l-19.99866617-85.71466452z" fill="#ffe600"/><g clip-path="url(#a)" transform="matrix(1.33333 0 0 -1.33333 0 200)"><path d="M150 99.1071c13.314 0 24.107-10.793 24.107-24.107S163.314 50.8931 150 50.8931s-24.107 10.793-24.107 24.107 10.793 24.107 24.107 24.107" fill="#ffe600"/><path d="M150 99.1071c13.314 0 24.107-10.793 24.107-24.107S163.314 50.8931 150 50.8931s-24.107 10.793-24.107 24.107 10.793 24.107 24.107 24.107z" fill="none" stroke="#d20000" stroke-width="4.28599977"/></g></svg>